<svg id="Laag_1" data-name="Laag 1" xmlns="http://www.w3.org/2000/svg" viewBox="0 0 304.6 79.61"><defs><style>.cls-1{fill:#36ab85;}.cls-2{fill:none;}.cls-3{fill:#121319;}.cls-4{fill:#33a072;}</style></defs><title>logo-lichtgroen</title><path class="cls-1" d="M179.55,202.55c0-20.3,15.3-34.5,35.7-34.5s35.6,14.2,35.6,34.5-15.2,34.5-35.6,34.5S179.55,222.85,179.55,202.55Zm53.8,0c0-10.9-7.1-19.3-18.1-19.3s-18.2,8.4-18.2,19.3,7.1,19.3,18.2,19.3S233.36,213.35,233.36,202.55Z" transform="translate(-41.19 -157.45)"/><path class="cls-1" d="M41.19,202.55c0-21.2,16.2-34.5,36.1-34.5,14.9,0,23.9,7.9,28.5,16.2l-14.4,7.5a16.55,16.55,0,0,0-14.1-8.5c-10.9,0-18.6,8.4-18.6,19.3s7.7,19.3,18.6,19.3c4.9,0,9.9-2,12.3-4v-5.2h-15v-15.1h32.2v26.5a38.54,38.54,0,0,1-29.5,13C57.39,237.05,41.19,223.75,41.19,202.55Z" transform="translate(-41.19 -157.45)"/><path class="cls-1" d="M154.09,235.85l-11.2-22.4h-8.8v22.4h-17.2v-66.7h33.4c14.8,0,23.2,9.8,23.2,22.2,0,11.6-7.1,17.8-13.3,20l13.6,24.5h-19.7Zm1.9-44.6c0-4.5-3.8-7.1-8.3-7.1h-13.6v14.3h13.6C152.19,198.45,156,196,156,191.25Z" transform="translate(-41.19 -157.45)"/><path class="cls-1" d="M308.49,235.85l-10.1-41.8-10.1,41.8h-18.2L251,169.15h19.3l10.1,44.5,11.4-44.5H305l11.4,44.5,10-44.5h19.4l-19.1,66.7h-18.2Z" transform="translate(-41.19 -157.45)"/><path class="cls-2" d="M204.45,218.43a9,9,0,0,0,1.71-1s6.08-3.71,6.77-4.15,0.73-.54.58-0.58c-5.71-.92-8.83-4.52-11.06-7.31s-4-8.4-3.12-12.08l0.24-1a21.37,21.37,0,0,0-2.48,10.23C197.09,209.2,199.79,215,204.45,218.43Z" transform="translate(-41.19 -157.45)"/><path class="cls-2" d="M217.44,213.05a68.68,68.68,0,0,1-10,7.12,19.3,19.3,0,0,0,14.43.53,9,9,0,0,1-2.86-3.07c4.19-3.52,9.42-10,12.17-14.21,0.75-1.13,1.44-2.26,2.1-3.42a22.06,22.06,0,0,0-.71-3.72c-0.6.85-1.25,1.74-2,2.68A88.28,88.28,0,0,1,217.44,213.05Z" transform="translate(-41.19 -157.45)"/><path class="cls-3" d="M238.35,189.39c2.46-5.83,2.69-7.65,2.77-8.58a38.76,38.76,0,0,1-3.67,7.42,57.9,57.9,0,0,1-4.93,8.07,22.06,22.06,0,0,1,.71,3.72A95.29,95.29,0,0,0,238.35,189.39Z" transform="translate(-41.19 -157.45)"/><path class="cls-4" d="M53.66,173.39a56.34,56.34,0,0,1,6.71,10.74c4-5.8-2.22-19.33-6.57-26.69-18.31,30.36,0,29.44,0,29.44a13.39,13.39,0,0,0,1.56-.09C55.2,182.66,54.76,174.79,53.66,173.39Z" transform="translate(-41.19 -157.45)"/><path class="cls-4" d="M334.69,225.17a38.73,38.73,0,0,1-8.64,1.06c2.44,4.19,12.69,4.23,18.54,3.66-13.6-20.23-18.35-8.55-18.35-8.55a9.2,9.2,0,0,0-.4,1C328.47,223.44,333.5,225.45,334.69,225.17Z" transform="translate(-41.19 -157.45)"/><path class="cls-4" d="M217.14,218.48A7.43,7.43,0,0,0,219.5,221c5.93-2.19,9.54-8,9.54-15a19.85,19.85,0,0,0-.12-2.1c-0.55,1-1.12,1.88-1.73,2.82A63.9,63.9,0,0,1,217.14,218.48Z" transform="translate(-41.19 -157.45)"/><path class="cls-4" d="M203.5,208.38c1.84,2.3,4.42,5.28,9.13,6,0.12,0,.09.12-0.48,0.48s-5.59,3.42-5.59,3.42a7.41,7.41,0,0,1-1.41.81,13.79,13.79,0,0,0,2.43,1.44,56.7,56.7,0,0,0,8.28-5.88,72.88,72.88,0,0,0,10.84-11.63c0.59-.78,1.13-1.51,1.63-2.21a14.88,14.88,0,0,0-27.21-3.27l-0.2.83C200.22,201.45,201.66,206.08,203.5,208.38Z" transform="translate(-41.19 -157.45)"/><path class="cls-4" d="M244.45,189.7a84.8,84.8,0,0,0-2.27-12.93c-1.86-7.4-2.15-8-2.15-8s-0.12-.1-0.34.17a13.07,13.07,0,0,1-5.54,4.32,102.45,102.45,0,0,1-10.53,3.7s-1.33.42-3.17,1.14c13.55,2.56,23,13.32,23,27.9,0,0.65,0,1.28-.06,1.91a33.77,33.77,0,0,0,1.25-8.19A93.45,93.45,0,0,0,244.45,189.7Z" transform="translate(-41.19 -157.45)"/><path class="cls-4" d="M220.45,178.13a44.91,44.91,0,0,0-7,3.32,31.41,31.41,0,0,0-8.77,8.19,18.54,18.54,0,0,0-3.61,7.95,14.88,14.88,0,0,1,27.21,3.27,47.8,47.8,0,0,0,4.07-6.66,32,32,0,0,0,3-6.12c-0.07.77-.26,2.27-2.29,7.09a78.67,78.67,0,0,1-4.22,8.77A19.85,19.85,0,0,1,229,206c0,7-3.61,12.79-9.54,15a15.18,15.18,0,0,0,4,2,11.44,11.44,0,0,0,8.5-.12s3-.86,6.74-5a25.57,25.57,0,0,0,4-7.74c0.25-.83.47-1.57,0.66-2.27,0-.63.06-1.26,0.06-1.91C243.49,191.45,234,180.69,220.45,178.13Z" transform="translate(-41.19 -157.45)"/></svg>